<?xml version="1.0" encoding="utf-8"?>
<!-- Generator: Adobe Illustrator 26.0.2, SVG Export Plug-In . SVG Version: 6.00 Build 0)  -->
<svg version="1.1" id="Layer_1" xmlns="http://www.w3.org/2000/svg" xmlns:xlink="http://www.w3.org/1999/xlink" x="0px" y="0px"
	 viewBox="0 0 317.9 171" style="enable-background:new 0 0 317.9 171;" xml:space="preserve">
<style type="text/css">
	.st0{fill:#0F2920;}
</style>
<path class="st0" d="M0,0l69.3,168.9l43.5-103.6l42.7,105.7L224,3.3h24.5c0,0,27.3-1.5,27.2,38.7c-0.1,33.6-21.7,35.3-29.1,37.4
	c0,0,39.9,4.3,38.8,47.8s-38.7,43.5-38.7,43.5s67.4,5.9,71.1-43.5s-52.5-47.8-52.5-47.8s38.7-3.9,40.9-40.8S257.1,0,257.1,0h-53.2
	v46.1l-33.9,80L120.9,0H86.3l24.9,62.1l-26.8,65.1L35,0H0z"/>
</svg>
